<svg width="16" height="16" viewBox="0 0 16 16" fill="none" xmlns="http://www.w3.org/2000/svg">
<path d="M13.3333 8C13.1556 8 12.9973 7.936 12.8587 7.808C12.7196 7.68044 12.6389 7.52222 12.6167 7.33333C12.4722 6.3 12.0362 5.41933 11.3087 4.69133C10.5807 3.96378 9.7 3.52778 8.66667 3.38333C8.47778 3.36111 8.31956 3.28333 8.192 3.15C8.064 3.01667 8 2.85556 8 2.66667C8 2.47778 8.06667 2.31933 8.2 2.19133C8.33333 2.06378 8.48889 2.01111 8.66667 2.03333C10.0667 2.18889 11.2611 2.76111 12.25 3.75C13.2389 4.73889 13.8111 5.93333 13.9667 7.33333C13.9889 7.51111 13.936 7.66667 13.808 7.8C13.6804 7.93333 13.5222 8 13.3333 8ZM10.55 8C10.4056 8 10.2778 7.95 10.1667 7.85C10.0556 7.75 9.97222 7.61667 9.91667 7.45C9.82778 7.12778 9.65844 6.84156 9.40867 6.59133C9.15844 6.34156 8.87222 6.17222 8.55 6.08333C8.38333 6.02778 8.25 5.94444 8.15 5.83333C8.05 5.72222 8 5.58889 8 5.43333C8 5.21111 8.07778 5.03044 8.23333 4.89133C8.38889 4.75267 8.56111 4.70556 8.75 4.75C9.37222 4.89444 9.90844 5.19156 10.3587 5.64133C10.8084 6.09156 11.1056 6.62778 11.25 7.25C11.2944 7.43889 11.2444 7.61111 11.1 7.76667C10.9556 7.92222 10.7722 8 10.55 8ZM13.3 14C11.8667 14 10.4696 13.6804 9.10867 13.0413C7.74733 12.4027 6.54178 11.5582 5.492 10.508C4.44178 9.45822 3.59733 8.25267 2.95867 6.89133C2.31956 5.53044 2 4.13333 2 2.7C2 2.5 2.06667 2.33333 2.2 2.2C2.33333 2.06667 2.5 2 2.7 2H5.4C5.55556 2 5.69444 2.05 5.81667 2.15C5.93889 2.25 6.01111 2.37778 6.03333 2.53333L6.46667 4.86667C6.48889 5.02222 6.48622 5.16378 6.45867 5.29133C6.43067 5.41933 6.36667 5.53333 6.26667 5.63333L4.66667 7.26667C5.13333 8.06667 5.71667 8.81667 6.41667 9.51667C7.11667 10.2167 7.88889 10.8222 8.73333 11.3333L10.3 9.76667C10.4 9.66667 10.5307 9.59156 10.692 9.54133C10.8529 9.49156 11.0111 9.47778 11.1667 9.5L13.4667 9.96667C13.6222 10 13.75 10.0749 13.85 10.1913C13.95 10.3082 14 10.4444 14 10.6V13.3C14 13.5 13.9333 13.6667 13.8 13.8C13.6667 13.9333 13.5 14 13.3 14Z" fill="#454A76"/>
</svg>
