<svg width="43" height="43" viewBox="0 0 43 43" fill="none" xmlns="http://www.w3.org/2000/svg">
<path d="M33.4926 26.1853C32.8362 26.1864 32.1962 26.3906 31.6604 26.7699C31.1247 27.1492 30.7194 27.685 30.5002 28.3038H28.1963V24.0668H30.3149C31.1619 24.0683 32.0007 23.9004 32.7819 23.5731C33.5632 23.2458 34.2711 22.7656 34.8642 22.1608C35.4572 21.5559 35.9233 20.8387 36.2352 20.0511C36.547 19.2636 36.6983 18.4217 36.6801 17.5748C36.6619 16.728 36.4747 15.8933 36.1293 15.1198C35.7839 14.3464 35.2874 13.6498 34.669 13.071C34.0506 12.4922 33.3227 12.0428 32.5281 11.7493C31.7335 11.4559 30.8883 11.3242 30.0421 11.362C29.5749 9.54183 28.5154 7.92879 27.0306 6.77697C25.5458 5.62514 23.72 5 21.8408 5C19.9616 5 18.1358 5.62514 16.651 6.77697C15.1662 7.92879 14.1067 9.54183 13.6395 11.362C12.7933 11.3242 11.9481 11.4559 11.1535 11.7493C10.3589 12.0428 9.63101 12.4922 9.01258 13.071C8.39415 13.6498 7.89766 14.3464 7.55229 15.1198C7.20692 15.8933 7.01965 16.728 7.00146 17.5748C6.98328 18.4217 7.13457 19.2636 7.44642 20.0511C7.75828 20.8387 8.22441 21.5559 8.81743 22.1608C9.41045 22.7656 10.1184 23.2458 10.8996 23.5731C11.6809 23.9004 12.5197 24.0683 13.3667 24.0668H15.4852V28.3038H13.1814C12.9315 27.597 12.4398 27.0014 11.7932 26.6221C11.1466 26.2428 10.3868 26.1043 9.64796 26.231C8.90913 26.3578 8.2389 26.7417 7.75573 27.3148C7.27255 27.8879 7.00755 28.6134 7.00755 29.363C7.00755 30.1127 7.27255 30.8382 7.75573 31.4113C8.2389 31.9844 8.90913 32.3683 9.64796 32.4951C10.3868 32.6218 11.1466 32.4833 11.7932 32.104C12.4398 31.7247 12.9315 31.1291 13.1814 30.4223H16.5445C16.8254 30.4223 17.0949 30.3107 17.2935 30.1121C17.4922 29.9134 17.6038 29.644 17.6038 29.363V24.0668H20.7815V32.7262C20.0748 32.9761 19.4791 33.4677 19.0998 34.1143C18.7205 34.7609 18.582 35.5208 18.7088 36.2596C18.8355 36.9984 19.2194 37.6687 19.7925 38.1518C20.3657 38.635 21.0912 38.9 21.8408 38.9C22.5904 38.9 23.3159 38.635 23.889 38.1518C24.4622 37.6687 24.846 36.9984 24.9728 36.2596C25.0996 35.5208 24.9611 34.7609 24.5818 34.1143C24.2025 33.4677 23.6068 32.9761 22.9001 32.7262V24.0668H26.0778V29.363C26.0778 29.644 26.1894 29.9134 26.3881 30.1121C26.5867 30.3107 26.8561 30.4223 27.1371 30.4223H30.5002C30.6945 30.9717 31.0361 31.4571 31.4876 31.8255C31.9392 32.1938 32.4833 32.4309 33.0606 32.5108C33.6378 32.5907 34.2259 32.5103 34.7606 32.2785C35.2952 32.0466 35.7558 31.6723 36.092 31.1963C36.4281 30.7203 36.6269 30.161 36.6667 29.5796C36.7064 28.9982 36.5854 28.4171 36.3171 27.8998C36.0488 27.3825 35.6434 26.949 35.1452 26.6466C34.6471 26.3442 34.0754 26.1846 33.4926 26.1853ZM10.189 30.4223C9.97945 30.4223 9.77466 30.3602 9.60046 30.2438C9.42627 30.1274 9.2905 29.962 9.21033 29.7684C9.13015 29.5749 9.10918 29.3619 9.15005 29.1564C9.19092 28.9509 9.2918 28.7622 9.43994 28.614C9.58808 28.4659 9.77683 28.365 9.9823 28.3241C10.1878 28.2833 10.4008 28.3043 10.5943 28.3844C10.7879 28.4646 10.9533 28.6004 11.0697 28.7746C11.1861 28.9488 11.2482 29.1535 11.2482 29.363C11.2482 29.644 11.1366 29.9134 10.938 30.1121C10.7393 30.3107 10.4699 30.4223 10.189 30.4223ZM21.8408 36.7779C21.6313 36.7779 21.4265 36.7157 21.2523 36.5993C21.0781 36.4829 20.9423 36.3175 20.8622 36.124C20.782 35.9304 20.761 35.7174 20.8019 35.5119C20.8428 35.3065 20.9436 35.1177 21.0918 34.9696C21.2399 34.8215 21.4287 34.7206 21.6341 34.6797C21.8396 34.6388 22.0526 34.6598 22.2462 34.74C22.4397 34.8201 22.6051 34.9559 22.7215 35.1301C22.8379 35.3043 22.9001 35.5091 22.9001 35.7186C22.9001 35.9995 22.7885 36.269 22.5898 36.4676C22.3912 36.6663 22.1217 36.7779 21.8408 36.7779ZM9.12969 17.7112C9.12877 17.0781 9.26995 16.4529 9.54282 15.8816C9.81569 15.3103 10.2133 14.8076 10.7063 14.4104C11.1993 14.0133 11.7752 13.7318 12.3915 13.5868C13.0078 13.4418 13.6487 13.437 14.2671 13.5727C14.4105 13.6037 14.5587 13.6045 14.7024 13.5752C14.8462 13.5459 14.9822 13.4871 15.102 13.4024C15.2218 13.3178 15.3227 13.2092 15.3984 13.0835C15.474 12.9578 15.5227 12.8178 15.5414 12.6723C15.7356 11.139 16.4825 9.7291 17.642 8.70715C18.8016 7.6852 20.2941 7.12136 21.8397 7.12136C23.3853 7.12136 24.8779 7.6852 26.0374 8.70715C27.197 9.7291 27.9439 11.139 28.1381 12.6723C28.1567 12.818 28.2055 12.9583 28.2813 13.0841C28.357 13.21 28.4581 13.3187 28.5782 13.4033C28.6982 13.488 28.8346 13.5468 28.9785 13.5759C29.1225 13.6051 29.271 13.604 29.4145 13.5727C29.9959 13.4451 30.5978 13.4414 31.1807 13.5619C31.7637 13.6825 32.3147 13.9245 32.7978 14.2722C33.281 14.62 33.6855 15.0656 33.9849 15.5801C34.2843 16.0946 34.4719 16.6665 34.5356 17.2583C34.5992 17.8502 34.5374 18.4489 34.3542 19.0153C34.1709 19.5817 33.8704 20.1031 33.4722 20.5456C33.074 20.9881 32.587 21.3417 32.043 21.5833C31.499 21.825 30.9101 21.9494 30.3149 21.9482H13.3667C12.2434 21.947 11.1664 21.5002 10.3721 20.7059C9.57776 19.9115 9.13096 18.8346 9.12969 17.7112ZM33.4926 30.4223C33.2831 30.4223 33.0783 30.3602 32.9041 30.2438C32.7299 30.1274 32.5942 29.962 32.514 29.7684C32.4338 29.5749 32.4129 29.3619 32.4537 29.1564C32.4946 28.9509 32.5955 28.7622 32.7436 28.614C32.8918 28.4659 33.0805 28.365 33.286 28.3241C33.4915 28.2833 33.7044 28.3043 33.898 28.3844C34.0915 28.4646 34.257 28.6004 34.3734 28.7746C34.4898 28.9488 34.5519 29.1535 34.5519 29.363C34.5519 29.5022 34.5245 29.6399 34.4713 29.7684C34.418 29.8969 34.34 30.0137 34.2416 30.1121C34.1433 30.2104 34.0265 30.2884 33.898 30.3417C33.7695 30.3949 33.6317 30.4223 33.4926 30.4223Z" fill="#1E3249"/>
<path d="M9.12969 17.7112C9.12877 17.0781 9.26995 16.4529 9.54282 15.8816C9.81569 15.3103 10.2133 14.8076 10.7063 14.4104C11.1993 14.0133 11.7752 13.7318 12.3915 13.5868C13.0078 13.4418 13.6487 13.437 14.2671 13.5727C14.4105 13.6037 14.5587 13.6045 14.7024 13.5752C14.8462 13.5459 14.9822 13.4871 15.102 13.4024C15.2218 13.3178 15.3227 13.2092 15.3984 13.0835C15.474 12.9578 15.5227 12.8178 15.5414 12.6723C15.7356 11.139 16.4825 9.7291 17.642 8.70715C18.8016 7.6852 20.2941 7.12136 21.8397 7.12136C23.3853 7.12136 24.8779 7.6852 26.0374 8.70715C27.197 9.7291 27.9439 11.139 28.1381 12.6723C28.1567 12.818 28.2055 12.9583 28.2813 13.0841C28.357 13.21 28.4581 13.3187 28.5782 13.4033C28.6982 13.488 28.8346 13.5468 28.9785 13.5759C29.1225 13.6051 29.271 13.604 29.4145 13.5727C29.9959 13.4451 30.5978 13.4414 31.1807 13.5619C31.7637 13.6825 32.3147 13.9245 32.7978 14.2722C33.281 14.62 33.6855 15.0656 33.9849 15.5801C34.2843 16.0946 34.4719 16.6665 34.5356 17.2583C34.5992 17.8502 34.5374 18.4489 34.3542 19.0153C34.1709 19.5817 33.8704 20.1031 33.4722 20.5456C33.074 20.9881 32.587 21.3417 32.043 21.5833C31.499 21.825 30.9101 21.9494 30.3149 21.9482H13.3667C12.2434 21.947 11.1664 21.5002 10.3721 20.7059C9.57776 19.9115 9.13096 18.8346 9.12969 17.7112Z" fill="#1E3249"/>
<path d="M10.189 30.4223C9.97945 30.4223 9.77466 30.3602 9.60046 30.2438C9.42627 30.1274 9.2905 29.962 9.21033 29.7684C9.13015 29.5749 9.10918 29.3619 9.15005 29.1564C9.19092 28.9509 9.2918 28.7622 9.43994 28.614C9.58808 28.4659 9.77683 28.365 9.9823 28.3241C10.1878 28.2833 10.4008 28.3043 10.5943 28.3844C10.7879 28.4646 10.9533 28.6004 11.0697 28.7746C11.1861 28.9488 11.2482 29.1535 11.2482 29.363C11.2482 29.644 11.1366 29.9134 10.938 30.1121C10.7393 30.3107 10.4699 30.4223 10.189 30.4223Z" fill="#1E3249"/>
<path d="M21.8408 36.7779C21.6313 36.7779 21.4265 36.7157 21.2523 36.5993C21.0781 36.4829 20.9423 36.3175 20.8622 36.124C20.782 35.9304 20.761 35.7174 20.8019 35.5119C20.8428 35.3065 20.9436 35.1177 21.0918 34.9696C21.2399 34.8215 21.4287 34.7206 21.6341 34.6797C21.8396 34.6388 22.0526 34.6598 22.2462 34.74C22.4397 34.8201 22.6051 34.9559 22.7215 35.1301C22.8379 35.3043 22.9001 35.5091 22.9001 35.7186C22.9001 35.9995 22.7885 36.269 22.5898 36.4676C22.3912 36.6663 22.1217 36.7779 21.8408 36.7779Z" fill="#1E3249"/>
<path d="M33.4926 30.4223C33.2831 30.4223 33.0783 30.3602 32.9041 30.2438C32.7299 30.1274 32.5942 29.962 32.514 29.7684C32.4338 29.5749 32.4129 29.3619 32.4537 29.1564C32.4946 28.9509 32.5955 28.7622 32.7436 28.614C32.8918 28.4659 33.0805 28.365 33.286 28.3241C33.4915 28.2833 33.7044 28.3043 33.898 28.3844C34.0915 28.4646 34.257 28.6004 34.3734 28.7746C34.4898 28.9488 34.5519 29.1535 34.5519 29.363C34.5519 29.5022 34.5245 29.6399 34.4713 29.7684C34.418 29.8969 34.34 30.0137 34.2416 30.1121C34.1433 30.2104 34.0265 30.2884 33.898 30.3417C33.7695 30.3949 33.6317 30.4223 33.4926 30.4223Z" fill="#1E3249"/>
</svg>
