<svg width="46" height="46" viewBox="0 0 46 46" fill="none" xmlns="http://www.w3.org/2000/svg">
<path d="M37.7038 16.6566C37.6129 16.3667 37.5013 16.0839 37.3699 15.8101V15.7925C36.7566 14.5403 35.7398 13.5328 34.4844 12.9334C33.2289 12.334 31.8085 12.1778 30.4535 12.4902C29.0985 12.8026 27.8884 13.5652 27.0195 14.6544C26.1506 15.7436 25.6739 17.0954 25.6666 18.4906C25.6667 18.9294 25.7139 19.367 25.8072 19.7956C25.8076 19.8015 25.8076 19.8074 25.8072 19.8133C25.8424 19.9896 25.8951 20.166 25.9478 20.3423C26.2614 21.5846 26.3225 22.8776 26.1272 24.1441C25.932 25.4106 25.4845 26.6246 24.8115 27.7137C24.1385 28.8029 23.2537 29.7448 22.21 30.4832C21.1663 31.2216 19.9851 31.7415 18.7368 32.0117C17.4885 32.2819 16.1988 32.297 14.9446 32.056C13.6903 31.815 12.4974 31.3229 11.4368 30.609C10.3763 29.8952 9.46989 28.9742 8.7718 27.9011C8.07371 26.828 7.5982 25.6247 7.37366 24.3631C7.69119 26.55 8.46279 28.6456 9.63851 30.5142C10.8142 32.3828 12.3679 33.9828 14.1988 35.2106C16.0298 36.4385 18.0973 37.2667 20.2675 37.6418C22.4376 38.0168 24.6621 37.9304 26.7969 37.388C28.9316 36.8455 30.9291 35.8593 32.6599 34.493C34.3907 33.1267 35.8164 31.4109 36.8446 29.4566C37.8727 27.5023 38.4805 25.3531 38.6285 23.1482C38.7765 20.9432 38.4615 18.7316 37.7038 16.6566Z" fill="url(#paint0_linear_174_3469)"/>
<path d="M12.7333 21.9649C14.7717 24.9452 18.9891 24.6807 18.9891 24.6807C17.9348 23.6579 17.2494 22.7232 17.1791 20.0603C17.1089 17.3974 15.5976 16.692 15.5976 16.692C18.3038 14.9814 17.3373 13.1297 17.2494 11.0664C17.1967 9.77902 17.9523 8.82672 18.5498 8.28003C15.111 8.79698 12.0037 10.626 9.87572 13.3858C7.74775 16.1456 6.76332 19.6232 7.12768 23.0936C7.37369 22.4058 10.853 19.2138 12.7333 21.9649Z" fill="url(#paint1_linear_174_3469)"/>
<path d="M37.7038 16.6566C37.6129 16.3667 37.5013 16.0839 37.3699 15.8101V15.7925C36.7566 14.5403 35.7398 13.5328 34.4844 12.9334C33.2289 12.334 31.8085 12.1778 30.4535 12.4902C29.0985 12.8026 27.8884 13.5652 27.0195 14.6544C26.1506 15.7436 25.6739 17.0954 25.6666 18.4906C25.6667 18.9294 25.7139 19.367 25.8072 19.7956C25.8076 19.8015 25.8076 19.8074 25.8072 19.8133C25.8424 19.9896 25.8951 20.166 25.9478 20.3423C26.2614 21.5846 26.3225 22.8776 26.1272 24.1441C25.932 25.4106 25.4845 26.6246 24.8115 27.7137C24.1385 28.8029 23.2537 29.7448 22.21 30.4832C21.1663 31.2216 19.9851 31.7415 18.7368 32.0117C17.4885 32.2819 16.1988 32.297 14.9446 32.056C13.6903 31.815 12.4974 31.3229 11.4368 30.609C10.3763 29.8952 9.46989 28.9742 8.7718 27.9011C8.07371 26.828 7.5982 25.6247 7.37366 24.3631C7.69119 26.55 8.46279 28.6456 9.63851 30.5142C10.8142 32.3828 12.3679 33.9828 14.1988 35.2106C16.0298 36.4385 18.0973 37.2667 20.2675 37.6418C22.4376 38.0168 24.6621 37.9304 26.7969 37.388C28.9316 36.8455 30.9291 35.8593 32.6599 34.493C34.3907 33.1267 35.8164 31.4109 36.8446 29.4566C37.8727 27.5023 38.4805 25.3531 38.6285 23.1482C38.7765 20.9432 38.4615 18.7316 37.7038 16.6566Z" fill="url(#paint2_linear_174_3469)"/>
<path fill-rule="evenodd" clip-rule="evenodd" d="M35.0856 20.9068C35.0856 28.5913 28.8782 34.8209 21.2209 34.8209C17.1567 34.8209 13.5009 33.066 10.965 30.27C11.1186 30.3876 11.2759 30.5007 11.4368 30.609C12.4974 31.3229 13.6904 31.815 14.9446 32.056C16.1988 32.297 17.4885 32.2819 18.7368 32.0117C19.9851 31.7415 21.1664 31.2216 22.2101 30.4832C23.2538 29.7448 24.1385 28.8029 24.8115 27.7137C25.4846 26.6246 25.932 25.4106 26.1273 24.1441C26.3225 22.8776 26.2615 21.5846 25.9478 20.3423C25.8951 20.166 25.8424 19.9896 25.8072 19.8133C25.8077 19.8074 25.8077 19.8015 25.8072 19.7956C25.7139 19.367 25.6668 18.9294 25.6667 18.4906C25.6739 17.0954 26.1507 15.7436 27.0196 14.6544C27.8885 13.5652 29.0985 12.8026 30.4535 12.4902C31.0125 12.3613 31.5826 12.3122 32.1477 12.341C33.9885 14.7026 35.0856 17.6761 35.0856 20.9068Z" fill="url(#paint3_linear_174_3469)"/>
<defs>
<linearGradient id="paint0_linear_174_3469" x1="36.2189" y1="14.1559" x2="13.7075" y2="35.2417" gradientUnits="userSpaceOnUse">
<stop stop-color="#6378FF"/>
<stop offset="1" stop-color="#6312FF"/>
</linearGradient>
<linearGradient id="paint1_linear_174_3469" x1="16.6517" y1="6.42606" x2="3.34904" y2="27.3266" gradientUnits="userSpaceOnUse">
<stop stop-color="#0AA3F9"/>
<stop offset="1" stop-color="#B5B4FF"/>
</linearGradient>
<linearGradient id="paint2_linear_174_3469" x1="43.3196" y1="38.5848" x2="22.0949" y2="11.5212" gradientUnits="userSpaceOnUse">
<stop stop-color="#0AA3F9"/>
<stop offset="1" stop-color="#B5B4FF"/>
</linearGradient>
<linearGradient id="paint3_linear_174_3469" x1="31.3911" y1="12.3386" x2="11.7783" y2="32.3065" gradientUnits="userSpaceOnUse">
<stop stop-color="#7ABBFD"/>
<stop offset="1" stop-color="#7ABBFD" stop-opacity="0"/>
</linearGradient>
</defs>
</svg>
