<svg width="46" height="46" viewBox="0 0 46 46" fill="none" xmlns="http://www.w3.org/2000/svg">
<path d="M22.5126 45.0248C34.9489 45.0248 45.025 34.9487 45.025 22.5124C45.025 10.0761 34.9489 0 22.5126 0C10.0763 0 0.000213623 10.0761 0.000213623 22.5124C0.000213623 34.9487 10.0763 45.0248 22.5126 45.0248Z" fill="url(#paint0_linear_205_488)" fill-opacity="0.5"/>
<circle r="22.5124" transform="matrix(-1 0 0 1 22.5123 22.5124)" fill="white" fill-opacity="0.5"/>
<path d="M23.9806 19.8454H13.7283C13.3461 19.8454 13.0334 20.1731 13.0334 20.5737V24.4577C13.0334 24.8582 13.3461 25.1859 13.7283 25.1859H23.9806V29.4826C23.9806 30.132 24.7277 30.4597 25.1678 29.9985L31.787 23.0254C32.0592 22.7402 32.0592 22.2851 31.787 21.9998L25.1678 15.0268C24.7335 14.5656 23.9806 14.8933 23.9806 15.5426V19.8454Z" fill="white"/>
<defs>
<linearGradient id="paint0_linear_205_488" x1="47.6909" y1="22.5124" x2="-7.10896" y2="21.3275" gradientUnits="userSpaceOnUse">
<stop stop-color="#63ACFF"/>
<stop offset="1" stop-color="#9FA2FF" stop-opacity="0.59"/>
</linearGradient>
</defs>
</svg>
