<svg width="46" height="46" viewBox="0 0 46 46" fill="none" xmlns="http://www.w3.org/2000/svg">
<path d="M22.5125 45.0248C10.0763 45.0248 0.000148773 34.9487 0.000148773 22.5124C0.000148773 10.0761 10.0763 0 22.5125 0C34.9488 0 45.0249 10.0761 45.0249 22.5124C45.0249 34.9487 34.9488 45.0248 22.5125 45.0248Z" fill="url(#paint0_linear_205_480)" fill-opacity="0.5"/>
<circle cx="22.5125" cy="22.5124" r="22.5124" fill="white" fill-opacity="0.5"/>
<path d="M21.0444 19.8454H31.2967C31.6789 19.8454 31.9916 20.1731 31.9916 20.5737V24.4577C31.9916 24.8582 31.6789 25.1859 31.2967 25.1859H21.0444V29.4826C21.0444 30.132 20.2973 30.4597 19.8572 29.9985L13.238 23.0254C12.9658 22.7402 12.9658 22.2851 13.238 21.9998L19.8572 15.0268C20.2915 14.5656 21.0444 14.8933 21.0444 15.5426V19.8454Z" fill="white"/>
<defs>
<linearGradient id="paint0_linear_205_480" x1="-2.66579" y1="22.5124" x2="52.1341" y2="21.3275" gradientUnits="userSpaceOnUse">
<stop stop-color="#1DACFF"/>
<stop offset="1" stop-color="#81BCF9" stop-opacity="0.81"/>
</linearGradient>
</defs>
</svg>
