<svg width="85" height="92" viewBox="0 0 85 92" fill="none" xmlns="http://www.w3.org/2000/svg">
<path d="M66.7838 37.9249V69.7754C66.7838 71.7388 66.0312 73.6217 64.6917 75.01C63.3521 76.3983 61.5353 77.1782 59.6409 77.1782H31.0695C29.1751 77.1782 27.3583 76.3983 26.0187 75.01C24.6792 73.6217 23.9266 71.7388 23.9266 69.7754V22.7861C23.9266 20.8228 24.6792 18.9398 26.0187 17.5515C27.3583 16.1632 29.1751 15.3833 31.0695 15.3833H51.4998" stroke="url(#paint0_linear_126_114)" stroke-width="3.60198" stroke-linecap="round" stroke-linejoin="round"/>
<path d="M18.7142 25.8766L7.07325 30.2072C5.29368 30.879 3.84439 32.2557 3.04406 34.0347C2.24373 35.8137 2.15788 37.8493 2.80539 39.6939L15.0197 85.0486C15.3406 85.9623 15.8321 86.8015 16.466 87.5183C17.0999 88.235 17.8638 88.8154 18.7142 89.2261C19.5645 89.6369 20.4846 89.87 21.4219 89.9121C22.3592 89.9543 23.2953 89.8047 24.1768 89.4718L37.625 83.0078M24.1768 36.9993H43.4982M24.1768 44.4021H47.0697M24.1768 51.8049H36.3554" stroke="url(#paint1_linear_126_114)" stroke-width="3.60198" stroke-linecap="round" stroke-linejoin="round"/>
<path d="M73.25 21.6013L76.1875 14.9295L82.625 11.8851L76.1875 8.84073L73.25 2.16895L70.3125 8.84073L63.875 11.8851L70.3125 14.9295L73.25 21.6013ZM61.5312 24.0304L57.625 15.1239L53.7187 24.0304L45.125 28.0788L53.7187 32.1272L57.625 41.0337L61.5312 32.1272L70.125 28.0788L61.5312 24.0304Z" stroke="url(#paint2_linear_126_114)" stroke-width="3.60198" stroke-linecap="round" stroke-linejoin="round"/>
<defs>
<linearGradient id="paint0_linear_126_114" x1="45.3552" y1="15.3833" x2="45.3552" y2="77.1782" gradientUnits="userSpaceOnUse">
<stop stop-color="#B5B4FF"/>
<stop offset="1" stop-color="#16ABFF"/>
</linearGradient>
<linearGradient id="paint1_linear_126_114" x1="24.7223" y1="25.8766" x2="24.7223" y2="89.9191" gradientUnits="userSpaceOnUse">
<stop stop-color="#B5B4FF"/>
<stop offset="1" stop-color="#16ABFF"/>
</linearGradient>
<linearGradient id="paint2_linear_126_114" x1="63.875" y1="2.16895" x2="63.875" y2="41.0337" gradientUnits="userSpaceOnUse">
<stop stop-color="#B5B4FF"/>
<stop offset="1" stop-color="#16ABFF"/>
</linearGradient>
</defs>
</svg>
