<svg width="73" height="91" viewBox="0 0 73 91" fill="none" xmlns="http://www.w3.org/2000/svg">
<path d="M34.8618 64.0044V47.7215C34.8618 45.2689 36.8499 43.2808 39.3025 43.2808C41.7552 43.2808 43.7433 45.2689 43.7433 47.7215V64.0044" stroke="url(#paint0_linear_126_123)" stroke-width="3.60198" stroke-linecap="round" stroke-linejoin="round"/>
<path d="M70.388 62.5242V72.1459C70.388 81.5474 62.7666 89.1688 53.365 89.1688H51.8847C42.4832 89.1688 34.8618 81.5474 34.8618 72.1459V62.5242" stroke="url(#paint1_linear_126_123)" stroke-width="3.60198" stroke-linecap="round" stroke-linejoin="round"/>
<path d="M43.7433 68.4453V65.6414V61.0441C43.7433 58.5914 45.7315 56.6033 48.1841 56.6033C50.6368 56.6033 52.6249 58.5914 52.6249 61.0441V65.7539V68.4453" stroke="url(#paint2_linear_126_123)" stroke-width="3.60198" stroke-linecap="round" stroke-linejoin="round"/>
<path d="M52.6245 68.4453V65.6414V61.0441C52.6245 58.5914 54.6126 56.6033 57.0652 56.6033C59.5179 56.6033 61.506 58.5914 61.506 61.0441V65.7539V68.4453" stroke="url(#paint3_linear_126_123)" stroke-width="3.60198" stroke-linecap="round" stroke-linejoin="round"/>
<path d="M61.5063 68.4453V65.6414V61.0441C61.5063 58.5914 63.4944 56.6033 65.9471 56.6033C68.3997 56.6033 70.3878 58.5914 70.3878 61.0441V65.7539V68.4453" stroke="url(#paint4_linear_126_123)" stroke-width="3.60198" stroke-linecap="round" stroke-linejoin="round"/>
<path d="M54.1052 47.7215C54.1052 46.1656 53.8651 44.6658 53.42 43.2569C52.9222 41.6813 52.168 40.2197 51.2061 38.921C48.5095 35.2795 44.1817 32.9189 39.3026 32.9189C34.4235 32.9189 30.0957 35.2795 27.399 38.921C26.4373 40.2197 25.683 41.6813 25.1852 43.2569C24.7401 44.6658 24.5 46.1656 24.5 47.7215" stroke="url(#paint5_linear_126_123)" stroke-width="3.60198" stroke-linecap="round" stroke-linejoin="round"/>
<path d="M23.875 69.2939H8.25C6.5924 69.2939 5.00268 68.6355 3.83058 67.4634C2.65848 66.2913 2 64.7015 2 63.0439L2.00012 8.41895C2.00012 6.76134 2.6586 5.17163 3.8307 3.99953C5.0028 2.82743 6.59252 2.16895 8.25012 2.16895H58.2501C59.9077 2.16895 61.4974 2.82743 62.6695 3.99953C63.8416 5.17163 64.5001 6.76134 64.5001 8.41895V27.1689" stroke="url(#paint6_linear_126_123)" stroke-width="3.60198" stroke-linecap="round" stroke-linejoin="round"/>
<path d="M2.00018 14.6689H64.5002M11.3752 8.45015L11.4064 8.41577M20.7502 8.45015L20.7814 8.41577M30.1252 8.45015L30.1564 8.41577" stroke="url(#paint7_linear_126_123)" stroke-width="3.60198" stroke-linecap="round" stroke-linejoin="round"/>
<defs>
<linearGradient id="paint0_linear_126_123" x1="39.3025" y1="43.2808" x2="39.3025" y2="64.0044" gradientUnits="userSpaceOnUse">
<stop stop-color="#B5B4FF"/>
<stop offset="1" stop-color="#16ABFF"/>
</linearGradient>
<linearGradient id="paint1_linear_126_123" x1="52.6249" y1="62.5242" x2="52.6249" y2="89.1688" gradientUnits="userSpaceOnUse">
<stop stop-color="#B5B4FF"/>
<stop offset="1" stop-color="#16ABFF"/>
</linearGradient>
<linearGradient id="paint2_linear_126_123" x1="48.1841" y1="56.6033" x2="48.1841" y2="68.4453" gradientUnits="userSpaceOnUse">
<stop stop-color="#B5B4FF"/>
<stop offset="1" stop-color="#16ABFF"/>
</linearGradient>
<linearGradient id="paint3_linear_126_123" x1="57.0652" y1="56.6033" x2="57.0652" y2="68.4453" gradientUnits="userSpaceOnUse">
<stop stop-color="#B5B4FF"/>
<stop offset="1" stop-color="#16ABFF"/>
</linearGradient>
<linearGradient id="paint4_linear_126_123" x1="65.9471" y1="56.6033" x2="65.9471" y2="68.4453" gradientUnits="userSpaceOnUse">
<stop stop-color="#B5B4FF"/>
<stop offset="1" stop-color="#16ABFF"/>
</linearGradient>
<linearGradient id="paint5_linear_126_123" x1="39.3026" y1="32.9189" x2="39.3026" y2="47.7215" gradientUnits="userSpaceOnUse">
<stop stop-color="#B5B4FF"/>
<stop offset="1" stop-color="#16ABFF"/>
</linearGradient>
<linearGradient id="paint6_linear_126_123" x1="33.2501" y1="2.16895" x2="33.2501" y2="69.2939" gradientUnits="userSpaceOnUse">
<stop stop-color="#B5B4FF"/>
<stop offset="1" stop-color="#16ABFF"/>
</linearGradient>
<linearGradient id="paint7_linear_126_123" x1="33.2502" y1="8.41577" x2="33.2502" y2="14.6689" gradientUnits="userSpaceOnUse">
<stop stop-color="#B5B4FF"/>
<stop offset="1" stop-color="#16ABFF"/>
</linearGradient>
</defs>
</svg>
