<svg width="88" height="93" viewBox="0 0 88 93" fill="none" xmlns="http://www.w3.org/2000/svg">
<path d="M19.4477 73.5905H13.771C11.4336 79.3436 7.02586 90.8499 8.09441 90.8499C9.16295 90.8499 56.0676 90.8499 79.2194 90.8499L74.2106 73.5905H69.8697" stroke="url(#paint0_linear_126_138)" stroke-width="3.60198" stroke-linecap="round" stroke-linejoin="round"/>
<path d="M44.3028 2.00103C44.2001 1.93369 44.0804 1.89707 43.9576 1.89548C43.8349 1.89389 43.7142 1.9274 43.6098 1.99206C36.6017 6.25069 28.5077 24.1752 28.5097 38.2838C28.5007 40.7889 28.7095 43.29 29.134 45.7589C26.763 47.7385 24.7547 50.0804 23.712 52.7409C20.7855 60.2716 25.2733 67.7965 27.4283 70.7982C27.5466 70.9624 27.7012 71.0972 27.88 71.192C28.0588 71.2869 28.2571 71.3393 28.4594 71.3452C28.6617 71.3511 28.8627 71.3104 29.0467 71.2261C29.2308 71.1418 29.3929 71.0163 29.5206 70.8593L36.9913 61.5364C37.6308 62.1636 38.3018 62.7579 39.0016 63.3169C39.4808 63.708 40.0812 63.9197 40.6996 63.9158L47.2024 63.9125C47.8213 63.9157 48.4219 63.703 48.9008 63.3109C49.596 62.7546 50.2626 62.1634 50.8979 61.5397L58.3718 70.8467C58.4997 71.0032 58.6619 71.1282 58.8458 71.212C59.0298 71.2959 59.2305 71.3363 59.4325 71.3302C59.6346 71.3241 59.8325 71.2716 60.011 71.1768C60.1895 71.082 60.3438 70.9474 60.462 70.7835C62.6253 67.7889 67.1179 60.247 64.1714 52.7338C63.1239 50.0723 61.1246 47.7438 58.7724 45.7666C59.1995 43.294 59.4097 40.7888 59.4004 38.2795C59.4326 24.1533 51.5754 6.55382 44.3028 2.00103Z" stroke="url(#paint1_linear_126_138)" stroke-width="3.60198" stroke-linecap="round" stroke-linejoin="round"/>
<path d="M40.5078 34.4049C41.5365 35.0921 42.746 35.4589 43.9831 35.4587C44.8047 35.4596 45.6183 35.2984 46.3775 34.9844C47.1367 34.6704 47.8265 34.2098 48.4074 33.6289C48.9883 33.0479 49.449 32.3581 49.763 31.599C50.077 30.8398 50.2382 30.0261 50.2373 29.2046C50.2374 27.9674 49.8707 26.758 49.1834 25.7293C48.4962 24.7006 47.5193 23.8987 46.3764 23.4252C45.2334 22.9517 43.9757 22.8278 42.7623 23.0691C41.5489 23.3104 40.4343 23.9062 39.5595 24.781C38.6847 25.6558 38.089 26.7704 37.8477 27.9838C37.6063 29.1972 37.7303 30.4549 38.2038 31.5978C38.6773 32.7408 39.4791 33.7177 40.5078 34.4049Z" stroke="url(#paint2_linear_126_138)" stroke-width="3.60198" stroke-linecap="round" stroke-linejoin="round"/>
<path d="M38.7325 69.3655C37.8267 70.5248 37.3342 71.9536 37.3332 73.4248C37.3394 77.0812 43.9488 84.0366 43.9488 84.0366C43.9488 84.0366 50.5624 77.077 50.5614 73.4238C50.5645 71.9507 50.0711 70.5196 49.161 69.3614" stroke="url(#paint3_linear_126_138)" stroke-width="3.60198" stroke-linecap="round" stroke-linejoin="round"/>
<defs>
<linearGradient id="paint0_linear_126_138" x1="43.5748" y1="73.5905" x2="43.5748" y2="90.8499" gradientUnits="userSpaceOnUse">
<stop stop-color="#B5B4FF"/>
<stop offset="1" stop-color="#16ABFF"/>
</linearGradient>
<linearGradient id="paint1_linear_126_138" x1="22.4129" y1="22.7459" x2="65.4875" y2="65.7768" gradientUnits="userSpaceOnUse">
<stop stop-color="#B5B4FF"/>
<stop offset="1" stop-color="#16ABFF"/>
</linearGradient>
<linearGradient id="paint2_linear_126_138" x1="39.5595" y1="24.781" x2="48.4074" y2="33.6289" gradientUnits="userSpaceOnUse">
<stop stop-color="#B5B4FF"/>
<stop offset="1" stop-color="#16ABFF"/>
</linearGradient>
<linearGradient id="paint3_linear_126_138" x1="38.977" y1="69.1211" x2="48.9207" y2="79.0647" gradientUnits="userSpaceOnUse">
<stop stop-color="#B5B4FF"/>
<stop offset="1" stop-color="#16ABFF"/>
</linearGradient>
</defs>
</svg>
